<svg width="61" height="72" viewBox="0 0 61 72" fill="none" xmlns="http://www.w3.org/2000/svg">
<g clip-path="url(#clip0_430_12188)">
<path fill-rule="evenodd" clip-rule="evenodd" d="M36.941 25.6478C39.1435 24.5496 41.946 22.933 44.7518 20.718C45.3434 21.9466 45.4082 23.0186 45.1034 23.8843C44.8874 24.4944 44.4804 25.025 43.9452 25.4472C43.3656 25.9034 42.6417 26.2356 41.8416 26.4151C40.3233 26.7571 38.5507 26.5574 36.941 25.6478ZM37.3229 36.9005L40.2384 38.5846C34.2854 41.921 32.6671 48.1164 30.7447 54.1507C28.8225 48.1164 27.204 41.921 21.2513 38.5846L24.1668 36.9005C24.4488 36.7939 24.6899 36.6008 24.8554 36.3488C25.021 36.0968 25.1025 35.7989 25.0884 35.4977C24.8213 29.8464 26.3472 27.3473 28.4054 25.7782C29.1437 25.2161 29.9496 24.9338 30.7447 24.9338C31.5398 24.9338 32.3457 25.2161 33.0842 25.7782C35.1425 27.3473 36.6684 29.8464 36.4013 35.4977C36.3871 35.7989 36.4687 36.0968 36.6342 36.3488C36.7998 36.6008 37.0408 36.7939 37.3229 36.9005ZM30.7447 0C34.1148 0.09048 37.4933 0.74472 40.4253 2.01744C42.4557 2.89992 44.3503 4.0656 46.0658 5.45952C46.8405 6.0888 47.4785 6.69672 48.1812 7.39656C50.0765 7.46208 52.8463 5.35656 54.1322 3.3864C51.9192 10.6416 41.8205 19.2094 34.829 22.4878C34.8261 22.4866 34.8242 22.4849 34.8221 22.4834C33.5673 21.5254 32.1561 21.0463 30.7447 21.0463C29.3333 21.0463 27.9223 21.5254 26.6676 22.4834C26.6654 22.4846 26.6635 22.4868 26.6606 22.4878C19.6689 19.2094 9.57046 10.6416 7.35742 3.3864C8.6431 5.35656 11.4129 7.46208 13.3082 7.39656C14.0112 6.69696 14.6491 6.0888 15.4236 5.45952C17.1391 4.0656 19.0337 2.89992 21.0641 2.01744C23.9964 0.74472 27.3749 0.09048 30.7447 0ZM24.5484 25.6478C22.3461 24.5496 19.5434 22.933 16.7378 20.718C16.1462 21.9466 16.0814 23.0186 16.386 23.8843C16.6022 24.4944 17.0093 25.025 17.5442 25.4472C18.1241 25.9034 18.8479 26.2356 19.6481 26.4151C21.1663 26.7571 22.9387 26.5574 24.5484 25.6478Z" fill="white"/>
<path fill-rule="evenodd" clip-rule="evenodd" d="M47.825 18.0038C49.3696 16.445 50.7306 14.7197 51.825 13.1801L52.3809 14.2262C54.1703 17.8063 55.1001 21.372 55.1001 25.3848L55.0962 31.7525L55.1298 35.0534C55.2594 43.1573 57.0129 51.3564 60.9849 58.8598L52.6744 52.1585L46.7942 61.7006L40.6166 55.8852L30.7449 71.905L20.8732 55.8854L14.6958 61.7009L8.8156 52.1587L0.504883 58.86C4.47688 51.3566 6.23032 43.1575 6.36016 35.0537L6.39376 31.7527L6.38992 25.385C6.38992 21.372 7.31944 17.8063 9.10936 14.2265L9.66496 13.1803C10.7594 14.7199 12.1202 16.445 13.665 18.0041L13.1826 19.0061C12.2454 20.9522 11.9351 23.1283 12.6652 25.1978C13.1358 26.5308 13.9948 27.6739 15.1022 28.5466C16.1774 29.394 17.4498 29.9652 18.7821 30.2652C19.6499 30.4606 20.5341 30.541 21.4125 30.5136C21.2075 31.6754 21.118 32.8805 21.1122 34.1083L13.2729 38.6362L19.3223 42.0271C19.8058 42.2982 20.2661 42.6088 20.6985 42.9557C25.6859 47.4336 28.6845 60.6809 30.7451 67.1515C32.806 60.6809 35.8043 47.4336 40.792 42.9557C41.2243 42.6087 41.6846 42.2982 42.1682 42.0271L48.2176 38.6362L40.378 34.1083C40.3722 32.8805 40.2827 31.6754 40.0778 30.5136C40.9562 30.541 41.8403 30.4606 42.7082 30.2652C44.0404 29.9652 45.3131 29.394 46.3881 28.5466C47.4952 27.6739 48.3544 26.5308 48.8248 25.1978C49.5551 23.1283 49.2446 20.9525 48.3076 19.0061L47.8252 18.0041L47.825 18.0038Z" fill="white"/>
</g>
<defs>
<clipPath id="clip0_430_12188">
<rect width="60.48" height="72" fill="white" transform="translate(0.504883)"/>
</clipPath>
</defs>
</svg>
