<svg width="73" height="72" viewBox="0 0 73 72" fill="none" xmlns="http://www.w3.org/2000/svg">
<g clip-path="url(#clip0_430_12245)">
<path d="M36.4043 0C26.8587 0 17.6955 3.79519 10.9512 10.5441C4.19989 17.2957 0.406229 26.452 0.404297 36C0.404297 45.5439 4.20117 54.7071 10.9512 61.4559C17.6955 68.2048 26.8587 72 36.4043 72C45.9499 72 55.113 68.2048 61.8574 61.4559C68.6074 54.7071 72.4043 45.5439 72.4043 36C72.4043 26.4561 68.6074 17.2929 61.8574 10.5441C55.113 3.79519 45.9499 0 36.4043 0Z" fill="url(#paint0_linear_430_12245)"/>
<path d="M16.6998 35.6198C27.1961 31.0478 34.1936 28.0335 37.6923 26.577C47.6936 22.4184 49.7692 21.6962 51.1248 21.6717C51.423 21.6669 52.0867 21.7406 52.5198 22.0908C52.8798 22.3861 52.9811 22.7855 53.0317 23.0659C53.0767 23.346 53.1386 23.9844 53.088 24.4828C52.548 30.1753 50.2023 43.9892 49.0098 50.3651C48.5092 53.0629 47.5136 53.9674 46.5517 54.0557C44.4592 54.2481 42.873 52.6742 40.848 51.3472C37.6811 49.2699 35.8923 47.9773 32.8155 45.9506C29.2605 43.6084 31.5667 42.3208 33.5917 40.2171C34.1205 39.6664 43.3342 31.2879 43.5086 30.528C43.5311 30.4329 43.5536 30.0786 43.3398 29.8918C43.1317 29.7045 42.8223 29.7686 42.5973 29.8193C42.2767 29.8913 37.2198 33.237 27.4098 39.8559C25.9755 40.8426 24.6761 41.3235 23.5061 41.2982C22.2236 41.2706 19.7486 40.5714 17.9092 39.9741C15.6592 39.2411 13.8648 38.8536 14.0223 37.6088C14.1011 36.9608 14.9955 36.2976 16.6998 35.6198Z" fill="white"/>
</g>
<defs>
<linearGradient id="paint0_linear_430_12245" x1="3600.4" y1="0" x2="3600.4" y2="7200" gradientUnits="userSpaceOnUse">
<stop stop-color="#2AABEE"/>
<stop offset="1" stop-color="#229ED9"/>
</linearGradient>
<clipPath id="clip0_430_12245">
<rect width="72" height="72" fill="white" transform="translate(0.404297)"/>
</clipPath>
</defs>
</svg>
