<svg width="64" height="72" viewBox="0 0 64 72" fill="none" xmlns="http://www.w3.org/2000/svg">
<g clip-path="url(#clip0_430_12258)">
<path fill-rule="evenodd" clip-rule="evenodd" d="M23.7938 4.10903C19.5094 6.34088 16.0041 8.22947 16.0048 8.30628C16.0067 8.50454 26.2876 13.7112 26.6525 13.6985C26.8185 13.6929 28.0227 13.1386 29.3283 12.4669L31.7025 11.2457L34.2954 12.5785L36.8882 13.9116L41.1344 12.0036C47.5325 9.12851 48.1971 8.81346 48.0929 8.70761C47.9547 8.56717 45.6598 7.33432 39.4336 4.05643C36.4246 2.4722 33.504 0.918901 32.9433 0.604592C32.3827 0.290283 31.8475 0.0374425 31.754 0.0423367C31.6606 0.0472309 28.0783 1.87726 23.7938 4.10903ZM5.00228 13.8399L0.542226 16.1437V26.2545C0.542226 31.8155 0.600791 36.3652 0.672628 36.3652C0.744217 36.3652 2.93857 35.414 5.54886 34.2514L10.2948 32.1376V21.4801L12.614 22.7437C14.4012 23.7165 16.1894 24.6873 17.9787 25.6561L21.0241 27.3049L22.3792 26.6922C23.2291 26.3072 24.0772 25.9186 24.9237 25.5262C25.5778 25.2216 27.1834 24.4984 28.4917 23.9188C29.7999 23.3389 31.011 22.7559 31.1827 22.623C31.4108 22.4465 28.6292 20.9093 20.8944 16.9374C15.0641 13.9434 10.1067 11.5032 9.87809 11.5149C9.64947 11.5266 7.45537 12.5727 5.00228 13.8399ZM48.8967 14.4869C45.8591 15.8582 43.3717 17.0349 43.3689 17.102C43.3662 17.1691 45.0218 18.1535 47.0482 19.2893C49.0744 20.4253 50.7323 21.4155 50.7323 21.4901C50.7323 21.5645 48.9393 22.4333 46.7481 23.4211C44.5565 24.4086 39.0173 26.9102 34.4384 28.9801L19.0959 35.9151C15.2365 37.6598 11.7577 39.2323 11.3653 39.4101C3.48225 42.9787 1.31551 43.9689 1.01796 44.1388C0.71875 44.31 0.650978 45.3042 0.597722 50.294L0.53418 56.2454L4.52256 58.2776L8.51086 60.3097L14.0413 57.8138C17.0831 56.4412 19.5716 55.2462 19.5716 55.1581C19.5716 55.0704 19.0096 54.7041 18.3229 54.344C17.6359 53.9838 16.2177 53.1864 15.1711 52.5718C14.1245 51.957 13.081 51.393 12.8519 51.3182C12.6228 51.2436 12.4388 51.1131 12.4425 51.028C12.4463 50.9431 14.8817 49.7864 17.854 48.4572C23.6273 45.876 28.0455 43.8865 37.5307 39.5971C41.7721 37.6794 46.0141 35.7629 50.2566 33.8476C53.9851 32.1647 58.3203 30.1991 59.8902 29.4797L62.7446 28.1718L62.8081 22.1526L62.8719 16.1337L58.8267 14.0574C56.6017 12.9156 54.6999 11.9841 54.6002 11.9875C54.5006 11.9906 51.934 13.1152 48.8967 14.4869ZM61.6609 36.2016C61.0648 36.4928 59.8873 37.038 59.0444 37.413C58.2014 37.788 56.6017 38.5098 55.4897 39.0172L53.4678 39.9394L53.4216 45.2237C53.3962 48.13 53.2892 50.4949 53.1838 50.4796C52.9445 50.444 49.155 48.5006 45.3458 46.4594C42.5965 44.9865 42.4238 44.9279 41.7778 45.2478C41.4043 45.4329 39.172 46.4341 36.8171 47.473C34.4621 48.5119 32.4587 49.4297 32.3644 49.5128C32.2704 49.5957 37.01 52.1645 42.897 55.2215L53.6003 60.7796L58.1726 58.4144C60.6871 57.1137 62.8253 55.9272 62.9237 55.778C63.1454 55.4424 63.1264 35.6262 62.9045 35.653C62.8167 35.6635 62.257 35.9105 61.6609 36.2016ZM36.3414 59.4609C35.5482 59.8019 34.7554 60.1434 33.9627 60.4853C31.569 61.5209 32.0381 61.5552 29.1903 60.1376C27.2936 59.1934 26.476 58.9021 26.1211 59.0435C25.8549 59.1495 23.564 60.1802 21.0298 61.3338C18.4958 62.4875 16.3345 63.4313 16.227 63.4313C15.1638 63.4313 16.9313 64.4874 23.752 67.9279L31.751 71.9625L35.1166 70.301C36.9676 69.3871 40.7012 67.5571 43.4136 66.2343C46.1257 64.9112 48.3113 63.7944 48.2704 63.7523C48.2292 63.7103 45.9566 62.5433 43.22 61.159L38.2443 58.6423L36.3414 59.4609Z" fill="#05A3C9"/>
</g>
<defs>
<clipPath id="clip0_430_12258">
<rect width="62.6112" height="72" fill="white" transform="translate(0.53418)"/>
</clipPath>
</defs>
</svg>
